<svg width="72" height="82" fill="none" xmlns="http://www.w3.org/2000/svg"><path d="M70.593 7.079v73.59H17.807v-1.86c0-1.066-.878-1.916-1.941-1.916-1.064 0-1.941.85-1.941 1.916v1.86H1.479V27.842c0-.498.412-.916.94-.916h12.506V14.629c0-.498.413-.916.94-.916h4.823V7.08c0-.498.413-.916.94-.916h6.744V1.416c0-.498.413-.916.94-.916.528 0 .941.418.941.916v4.747h6.743c.528 0 .941.418.941.916v6.634h3.881V7.08c0-.498.413-.916.941-.916h26.893c.528 0 .941.418.941.916ZM36.773 77.5V51.073M42.879 77.427V51M48.984 77.427V51" stroke="#05C2DF" stroke-linecap="round"/><path d="M51.353 16.517c0 .64-.529 1.165-1.19 1.165-.662 0-1.191-.525-1.191-1.165v-1.888c0-.64.529-1.166 1.19-1.166.662 0 1.191.526 1.191 1.166v1.888ZM57.117 16.517c0 .64-.53 1.165-1.191 1.165-.662 0-1.19-.525-1.19-1.165v-1.888c0-.64.528-1.166 1.19-1.166.662 0 1.19.526 1.19 1.166v1.888ZM62.88 16.517c0 .64-.53 1.165-1.191 1.165-.662 0-1.191-.525-1.191-1.165v-1.888c0-.64.53-1.166 1.19-1.166.662 0 1.191.526 1.191 1.166v1.888ZM51.353 25.955c0 .64-.529 1.166-1.19 1.166-.662 0-1.191-.526-1.191-1.166v-1.888c0-.64.529-1.166 1.19-1.166.662 0 1.191.526 1.191 1.166v1.888ZM57.117 25.955c0 .64-.53 1.166-1.191 1.166-.662 0-1.19-.526-1.19-1.166v-1.888c0-.64.528-1.166 1.19-1.166.662 0 1.19.526 1.19 1.166v1.888ZM62.88 25.955c0 .64-.53 1.166-1.191 1.166-.662 0-1.191-.526-1.191-1.166v-1.888c0-.64.53-1.166 1.19-1.166.662 0 1.191.526 1.191 1.166v1.888ZM51.353 35.393c0 .64-.529 1.166-1.19 1.166-.662 0-1.191-.526-1.191-1.166v-1.888c0-.64.529-1.165 1.19-1.165.662 0 1.191.526 1.191 1.165v1.888ZM57.117 35.393c0 .64-.53 1.166-1.191 1.166-.662 0-1.19-.526-1.19-1.166v-1.888c0-.64.528-1.165 1.19-1.165.662 0 1.19.526 1.19 1.165v1.888ZM62.88 35.393c0 .64-.53 1.166-1.191 1.166-.662 0-1.191-.526-1.191-1.166v-1.888c0-.64.53-1.165 1.19-1.165.662 0 1.191.526 1.191 1.165v1.888ZM11.013 39.169c0 .64-.529 1.165-1.19 1.165-.662 0-1.191-.526-1.191-1.165V37.28c0-.64.529-1.166 1.19-1.166.662 0 1.191.526 1.191 1.166v1.888ZM16.776 39.169c0 .64-.529 1.165-1.19 1.165-.663 0-1.191-.526-1.191-1.165V37.28c0-.64.529-1.166 1.19-1.166.662 0 1.19.526 1.19 1.166v1.888ZM22.539 39.169c0 .64-.53 1.165-1.191 1.165-.662 0-1.19-.526-1.19-1.165V37.28c0-.64.528-1.166 1.19-1.166.662 0 1.19.526 1.19 1.166v1.888ZM11.013 48.607c0 .64-.529 1.165-1.19 1.165-.662 0-1.191-.526-1.191-1.165v-1.888c0-.64.529-1.166 1.19-1.166.662 0 1.191.526 1.191 1.166v1.888ZM16.776 48.607c0 .64-.529 1.165-1.19 1.165-.663 0-1.191-.526-1.191-1.165v-1.888c0-.64.529-1.166 1.19-1.166.662 0 1.19.526 1.19 1.166v1.888ZM22.539 48.607c0 .64-.53 1.165-1.191 1.165-.662 0-1.19-.526-1.19-1.165v-1.888c0-.64.528-1.166 1.19-1.166.662 0 1.19.526 1.19 1.166v1.888ZM11.013 58.045c0 .64-.529 1.166-1.19 1.166-.662 0-1.191-.526-1.191-1.166v-1.888c0-.64.529-1.165 1.19-1.165.662 0 1.191.526 1.191 1.165v1.888ZM16.776 58.045c0 .64-.529 1.166-1.19 1.166-.663 0-1.191-.526-1.191-1.166v-1.888c0-.64.529-1.165 1.19-1.165.662 0 1.19.526 1.19 1.165v1.888ZM22.539 58.045c0 .64-.53 1.166-1.191 1.166-.662 0-1.19-.526-1.19-1.166v-1.888c0-.64.528-1.165 1.19-1.165.662 0 1.19.526 1.19 1.165v1.888ZM11.013 67.483c0 .64-.529 1.166-1.19 1.166-.662 0-1.191-.526-1.191-1.166v-1.888c0-.64.529-1.165 1.19-1.165.662 0 1.191.525 1.191 1.165v1.888ZM16.776 67.483c0 .64-.529 1.166-1.19 1.166-.663 0-1.191-.526-1.191-1.166v-1.888c0-.64.529-1.165 1.19-1.165.662 0 1.19.525 1.19 1.165v1.888ZM22.539 67.483c0 .64-.53 1.166-1.191 1.166-.662 0-1.19-.526-1.19-1.166v-1.888c0-.64.528-1.165 1.19-1.165.662 0 1.19.525 1.19 1.165v1.888ZM62.88 44.832c0 .64-.53 1.165-1.191 1.165-.662 0-1.191-.526-1.191-1.165v-1.888c0-.64.53-1.166 1.19-1.166.662 0 1.191.526 1.191 1.166v1.888ZM62.88 54.27c0 .64-.53 1.165-1.191 1.165-.662 0-1.191-.526-1.191-1.165v-1.888c0-.64.53-1.166 1.19-1.166.662 0 1.191.526 1.191 1.166v1.888ZM62.88 63.708c0 .64-.53 1.165-1.191 1.165-.662 0-1.191-.526-1.191-1.165V61.82c0-.64.53-1.166 1.19-1.166.662 0 1.191.526 1.191 1.166v1.888ZM62.88 73.146c0 .64-.53 1.166-1.191 1.166-.662 0-1.191-.526-1.191-1.166v-1.888c0-.64.53-1.165 1.19-1.165.662 0 1.191.526 1.191 1.165v1.888Z" fill="#05C2DF" stroke="#05040B" stroke-width=".5" stroke-linecap="round"/><path d="M35.07 20H23.544" stroke="#05C2DF" stroke-linecap="round"/></svg>