<svg width="107" height="80" fill="none" xmlns="http://www.w3.org/2000/svg"><rect x="11.511" y="1.5" width="84.397" height="59.592" rx="3.5" stroke="#05C2DF"/><path stroke="#05C2DF" d="M11.011 51.151h85.396"/><path stroke="#05C2DF" stroke-linecap="round" d="M49.522 56.358h7.852"/><path stroke="#05C2DF" d="M36.505 61.618h33.888v5.154H36.505zM26.091 72.98h54.716v5.154H26.091zM27.42 72.453l8.722-5.154h34.614l8.722 5.154H27.42Z"/><path d="m34.267 13.307 8 22.364h.091l8-22.364h.773L42.813 36.58h-1l-8.318-23.273h.772ZM55.804 36.58V13.307h6.819c1.303 0 2.454.277 3.454.83a5.997 5.997 0 0 1 2.364 2.318c.575.993.863 2.155.863 3.489 0 1.318-.288 2.473-.863 3.466a6.019 6.019 0 0 1-2.364 2.306c-1 .546-2.151.819-3.454.819h-6.455v-.728h6.455c1.166 0 2.197-.242 3.09-.727a5.301 5.301 0 0 0 2.103-2.045c.507-.88.761-1.91.761-3.091 0-1.19-.254-2.228-.761-3.114a5.278 5.278 0 0 0-2.103-2.057c-.893-.492-1.924-.738-3.09-.738h-6.091V36.58h-.728Zm8.864-10.59 5.727 10.59h-.818L63.85 25.99h.818Z" fill="#05C2DF"/></svg>