<svg width="110" height="82" fill="none" xmlns="http://www.w3.org/2000/svg"><path d="M48.204 18.176c2.695 3.795 4.12 8.284 4.12 12.982 0 12.209-9.73 22.141-21.69 22.141-11.959 0-21.689-9.932-21.689-22.14 0-12.21 9.73-22.142 21.69-22.142 4.594 0 8.985 1.45 12.699 4.192" stroke="#05C2DF" stroke-width="1.007" stroke-linejoin="round"/><path d="M30.635 40.013c-4.767 0-8.664-3.963-8.664-8.855s3.897-8.855 8.664-8.855c4.767 0 8.664 3.963 8.664 8.855s-3.897 8.855-8.664 8.855ZM107.667 1c-9.063 0-16.436 7.527-16.436 16.779v8.743a14.022 14.022 0 0 0-5.825 3.495" stroke="#05C2DF" stroke-width="1.007"/><path d="M47.322 56.03a30.197 30.197 0 0 0 9.968-11.874m32.769 8.437a22.536 22.536 0 0 0-5.41-3.736l-.329-.162M81.688 36.35a14.692 14.692 0 0 0-.558 4v6.773l-1.685-.83a52.775 52.775 0 0 0-20.864-5.35 30.596 30.596 0 0 0 1.596-9.784C60.178 14.529 46.925 1 30.636 1S1.093 14.53 1.093 31.16c0 16.629 13.252 30.157 29.542 30.157 4.987 0 9.689-1.27 13.813-3.506 1.536 1.359 26.908 23.626 40.178 23.626.162 0 .324-.003.483-.01 13.279-.566 23.318-11.681 23.739-12.154" stroke="#05C2DF" stroke-width="1.007"/></svg>