<svg width="99" height="81" fill="none" xmlns="http://www.w3.org/2000/svg"><g clip-path="url('#clip0_3495_4742')" stroke="#05C2DF" stroke-miterlimit="10"><path d="M63.216 5.253 50.18.107 1.254 19.026 49.978 41.5l48.725-22.482L65.866 6.432"/><path d="M48.933 15.935 75.475 28.1v43.83M16.979 26v14"/><path d="M17.059 43.15v13.644s31.5 27.183 65.658 0V26.31M75.475 80.9c2.451 0 4.438-1.996 4.438-4.458 0-2.463-1.987-4.46-4.438-4.46-2.451 0-4.438 1.997-4.438 4.46 0 2.462 1.987 4.458 4.438 4.458Z"/></g><defs><clipPath id="clip0_3495_4742"><path fill="#fff" transform="translate(.979)" d="M0 0h98v81H0z"/></clipPath></defs></svg>