<svg width="245" height="77" fill="none" xmlns="http://www.w3.org/2000/svg"><g filter="url('#filter0_d_3_3')"><path opacity=".45" d="M55 7c-4.88-3.411-10.086-4.648-16-5-5.913-.352-11.44 1.003-16.679 3.812a32.697 32.697 0 0 0-12.676 12.18A33.407 33.407 0 0 0 5 35.08a33.403 33.403 0 0 0 4.727 17.066A32.69 32.69 0 0 0 22.46 64.263a32.035 32.035 0 0 0 17.066 3.67C45.44 67.554 51.136 65.436 56 62" stroke="#05C2DF" stroke-width="2" stroke-miterlimit="1.517"/><path d="M38.03 61.155c14.588 0 26.413-11.79 26.413-26.335 0-14.544-11.825-26.335-26.412-26.335S11.618 20.275 11.618 34.82c0 14.545 11.825 26.335 26.413 26.335Z" stroke="#05C2DF" stroke-miterlimit="10"/><path opacity=".45" d="M90 12H60v2h30v-2ZM90 56H60v2h30v-2Z" fill="#05C2DF"/><path d="M49 35 31.75 45.392V24.608L49 35Z" fill="#fff"/><path opacity=".45" d="M86.225 12h-1.96v2h1.96v-2ZM83.286 12h-1.96v2h1.96v-2ZM89.163 12h-1.959v2h1.96v-2ZM92.102 12h-1.96v2h1.96v-2ZM95.04 12h-1.958v2h1.959v-2ZM98.96 12H97v2h1.96v-2ZM102.878 12h-1.96v2h1.96v-2ZM106.796 12h-1.959v2h1.959v-2ZM111.694 12h-1.959v2h1.959v-2ZM116.592 12h-1.959v2h1.959v-2ZM121.49 12h-1.959v2h1.959v-2ZM126.388 12h-1.959v2h1.959v-2ZM131.286 12h-1.959v2h1.959v-2ZM136.184 12h-1.96v2h1.96v-2ZM147.547 12.23h-1.567v1.6h1.567v-1.6ZM153.424 12.23h-1.567v1.6h1.567v-1.6ZM159.302 12.23h-1.567v1.6h1.567v-1.6ZM164.886 12.43h-1.274v1.3h1.274v-1.3ZM171.743 12.43h-1.274v1.3h1.274v-1.3ZM178.6 12.43h-1.273v1.3h1.273v-1.3ZM185.457 12.43h-1.273v1.3h1.273v-1.3ZM193.294 12.43h-1.274v1.3h1.274v-1.3ZM202.11 12.43h-1.273v1.3h1.273v-1.3ZM141.669 12.23h-1.567v1.6h1.567v-1.6ZM240.02 12.5h-.979v1h.979v-1ZM226.306 12.5h-.979v1h.979v-1ZM213.571 12.5h-.979v1h.979v-1ZM86.225 56h-1.96v2h1.96v-2ZM83.286 56h-1.96v2h1.96v-2ZM89.163 56h-1.959v2h1.96v-2ZM92.102 56h-1.96v2h1.96v-2ZM95.04 56h-1.958v2h1.959v-2ZM98.96 56H97v2h1.96v-2ZM102.878 56h-1.96v2h1.96v-2ZM106.796 56h-1.959v2h1.959v-2ZM111.694 56h-1.959v2h1.959v-2ZM116.592 56h-1.959v2h1.959v-2ZM121.49 56h-1.959v2h1.959v-2ZM126.388 56h-1.959v2h1.959v-2ZM131.286 56h-1.959v2h1.959v-2ZM136.184 56h-1.96v2h1.96v-2ZM147.547 56.23h-1.567v1.6h1.567v-1.6ZM153.424 56.23h-1.567v1.6h1.567v-1.6ZM159.302 56.23h-1.567v1.6h1.567v-1.6ZM164.886 56.43h-1.274v1.3h1.274v-1.3ZM171.743 56.43h-1.274v1.3h1.274v-1.3ZM178.6 56.43h-1.273v1.3h1.273v-1.3ZM185.457 56.43h-1.273v1.3h1.273v-1.3ZM193.294 56.43h-1.274v1.3h1.274v-1.3ZM202.11 56.43h-1.273v1.3h1.273v-1.3ZM141.669 56.23h-1.567v1.6h1.567v-1.6ZM240.02 56.5h-.979v1h.979v-1ZM226.306 56.5h-.979v1h.979v-1ZM213.571 56.5h-.979v1h.979v-1Z" fill="#05C2DF"/></g><defs><filter id="filter0_d_3_3" x="0" y=".945" width="244.02" height="76.055" filterUnits="userSpaceOnUse" color-interpolation-filters="sRGB"><feFlood flood-opacity="0" result="BackgroundImageFix"/><feColorMatrix in="SourceAlpha" values="0 0 0 0 0 0 0 0 0 0 0 0 0 0 0 0 0 0 127 0" result="hardAlpha"/><feOffset dy="4"/><feGaussianBlur stdDeviation="2"/><feComposite in2="hardAlpha" operator="out"/><feColorMatrix values="0 0 0 0 0 0 0 0 0 0 0 0 0 0 0 0 0 0 0.25 0"/><feBlend in2="BackgroundImageFix" result="effect1_dropShadow_3_3"/><feBlend in="SourceGraphic" in2="effect1_dropShadow_3_3" result="shape"/></filter></defs></svg>