<svg width="24" height="19" fill="none" xmlns="http://www.w3.org/2000/svg"><path d="M9.14 18.278c-1.01 0-2.051-.075-3.098-.225-1.844-.265-3.711-1.147-4.24-1.411l-1.385-.693 1.5-.451c1.64-.493 2.637-.8 3.872-1.278-1.236-.548-2.19-1.533-2.648-2.806l-.349-.97.286.04a4.865 4.865 0 0 1-.651-.734c-.59-.82-.904-1.823-.837-2.683l.066-.845.553.196a4.477 4.477 0 0 1-.501-1.286c-.242-1.101-.04-2.27.57-3.294l.482-.81.645.71c2.039 2.24 4.622 3.57 7.688 3.959-.125-.79-.031-1.552.28-2.235.36-.795 1.004-1.47 1.859-1.95.95-.534 2.1-.793 3.242-.728 1.21.068 2.31.482 3.183 1.2.426-.101.74-.21 1.165-.355.255-.088.545-.188.907-.302l1.336-.421-.87 2.275a4.81 4.81 0 0 1 .178-.01l1.426-.06-.843 1.054c-.048.06-.06.078-.078.101-.068.094-.152.21-1.31 1.624-.29.354-.434.815-.407 1.298.103 1.837-.144 3.499-.733 4.939a8.746 8.746 0 0 1-2.564 3.475c-1.417 1.167-3.224 1.966-5.37 2.375-1.053.2-2.183.3-3.354.3Z" fill="#fff"/></svg>